<svg width="191" height="32" viewBox="0 0 191 32" fill="none" xmlns="http://www.w3.org/2000/svg">
<path d="M28.6725 11.5582L18.57 3.08105L15.4881 6.75355L9.82717 4.64293L5.94186 13.7129H3.43311V28.5626H28.5759V13.7129H26.864L28.6725 11.5582ZM18.8512 6.30074L25.4528 11.8392L23.88 13.7129H12.6315L18.8512 6.30074ZM11.0703 7.54574L13.9287 8.61137L9.64811 13.7129H8.42904L11.0703 7.54574ZM26.2903 26.2767H5.71904V15.9986H26.2906V26.2767H26.2903Z" fill="white"/>
<path d="M19.4277 20.0298H23.9993V22.3154H19.4277V20.0298Z" fill="white"/>
<path d="M49.3164 25L45.8125 12.6602H45.707C45.8711 14.7617 45.9531 16.3945 45.9531 17.5586V25H41.8516V7.86719H48.0156L51.5898 20.0312H51.6836L55.1875 7.86719H61.3633V25H57.1094V17.4883C57.1094 17.0977 57.1133 16.6641 57.1211 16.1875C57.1367 15.7109 57.1914 14.543 57.2852 12.6836H57.1797L53.7227 25H49.3164ZM77.4648 18.332C77.4648 20.5039 76.8789 22.1992 75.707 23.418C74.543 24.6289 72.9102 25.2344 70.8086 25.2344C68.793 25.2344 67.1875 24.6133 65.9922 23.3711C64.8047 22.1289 64.2109 20.4492 64.2109 18.332C64.2109 16.168 64.793 14.4883 65.957 13.293C67.1289 12.0898 68.7695 11.4883 70.8789 11.4883C72.1836 11.4883 73.3359 11.7656 74.3359 12.3203C75.3359 12.875 76.1055 13.6719 76.6445 14.7109C77.1914 15.7422 77.4648 16.9492 77.4648 18.332ZM68.8633 18.332C68.8633 19.4727 69.0156 20.3438 69.3203 20.9453C69.625 21.5391 70.1367 21.8359 70.8555 21.8359C71.5664 21.8359 72.0664 21.5391 72.3555 20.9453C72.6523 20.3438 72.8008 19.4727 72.8008 18.332C72.8008 17.1992 72.6523 16.3438 72.3555 15.7656C72.0586 15.1875 71.5508 14.8984 70.832 14.8984C70.1289 14.8984 69.625 15.1875 69.3203 15.7656C69.0156 16.3359 68.8633 17.1914 68.8633 18.332ZM88.4688 25V17.7578C88.4688 16.875 88.3398 16.2109 88.082 15.7656C87.832 15.3125 87.4258 15.0859 86.8633 15.0859C86.0898 15.0859 85.5312 15.3945 85.1875 16.0117C84.8438 16.6289 84.6719 17.6875 84.6719 19.1875V25H80.0898V11.7227H83.5469L84.1211 13.3633H84.3906C84.7812 12.7383 85.3203 12.2695 86.0078 11.957C86.7031 11.6445 87.5 11.4883 88.3984 11.4883C89.8672 11.4883 91.0078 11.9141 91.8203 12.7656C92.6406 13.6172 93.0508 14.8164 93.0508 16.3633V25H88.4688ZM102.578 25.2344C100.367 25.2344 98.6484 24.6484 97.4219 23.4766C96.2031 22.2969 95.5938 20.6211 95.5938 18.4492C95.5938 16.207 96.1602 14.4883 97.293 13.293C98.4258 12.0898 100.043 11.4883 102.145 11.4883C104.145 11.4883 105.688 12.0117 106.773 13.0586C107.867 14.0977 108.414 15.5977 108.414 17.5586V19.5977H100.223C100.254 20.3398 100.523 20.9219 101.031 21.3438C101.547 21.7656 102.246 21.9766 103.129 21.9766C103.934 21.9766 104.672 21.9023 105.344 21.7539C106.023 21.5977 106.758 21.3359 107.547 20.9688V24.2617C106.828 24.6289 106.086 24.8828 105.32 25.0234C104.555 25.1641 103.641 25.2344 102.578 25.2344ZM102.309 14.6055C101.77 14.6055 101.316 14.7773 100.949 15.1211C100.59 15.457 100.379 15.9883 100.316 16.7148H104.254C104.238 16.0742 104.055 15.5625 103.703 15.1797C103.359 14.7969 102.895 14.6055 102.309 14.6055ZM109.398 11.7227H114.227L116.477 19.3398C116.586 19.7383 116.66 20.2188 116.699 20.7812H116.793C116.855 20.2422 116.949 19.7695 117.074 19.3633L119.383 11.7227H124.059L118.809 25.8438C118.137 27.6406 117.309 28.9102 116.324 29.6523C115.348 30.3945 114.07 30.7656 112.492 30.7656C111.883 30.7656 111.258 30.6992 110.617 30.5664V26.9688C111.031 27.0625 111.504 27.1094 112.035 27.1094C112.441 27.1094 112.797 27.0312 113.102 26.875C113.406 26.7188 113.672 26.4961 113.898 26.207C114.125 25.9258 114.367 25.4609 114.625 24.8125L109.398 11.7227ZM146.84 25H142.188V18.0156H136.809V25H132.156V7.86719H136.809V14.2188H142.188V7.86719H146.84V25ZM156.695 25.2344C154.484 25.2344 152.766 24.6484 151.539 23.4766C150.32 22.2969 149.711 20.6211 149.711 18.4492C149.711 16.207 150.277 14.4883 151.41 13.293C152.543 12.0898 154.16 11.4883 156.262 11.4883C158.262 11.4883 159.805 12.0117 160.891 13.0586C161.984 14.0977 162.531 15.5977 162.531 17.5586V19.5977H154.34C154.371 20.3398 154.641 20.9219 155.148 21.3438C155.664 21.7656 156.363 21.9766 157.246 21.9766C158.051 21.9766 158.789 21.9023 159.461 21.7539C160.141 21.5977 160.875 21.3359 161.664 20.9688V24.2617C160.945 24.6289 160.203 24.8828 159.438 25.0234C158.672 25.1641 157.758 25.2344 156.695 25.2344ZM156.426 14.6055C155.887 14.6055 155.434 14.7773 155.066 15.1211C154.707 15.457 154.496 15.9883 154.434 16.7148H158.371C158.355 16.0742 158.172 15.5625 157.82 15.1797C157.477 14.7969 157.012 14.6055 156.426 14.6055ZM173.137 11.4883C173.535 11.4883 173.914 11.5195 174.273 11.582L174.531 11.6289L174.121 15.9531C173.746 15.8594 173.227 15.8125 172.562 15.8125C171.562 15.8125 170.836 16.043 170.383 16.5039C169.93 16.957 169.703 17.6133 169.703 18.4727V25H165.121V11.7227H168.531L169.246 13.8438H169.469C169.852 13.1406 170.383 12.5742 171.062 12.1445C171.75 11.707 172.441 11.4883 173.137 11.4883ZM189.074 18.332C189.074 20.5039 188.488 22.1992 187.316 23.418C186.152 24.6289 184.52 25.2344 182.418 25.2344C180.402 25.2344 178.797 24.6133 177.602 23.3711C176.414 22.1289 175.82 20.4492 175.82 18.332C175.82 16.168 176.402 14.4883 177.566 13.293C178.738 12.0898 180.379 11.4883 182.488 11.4883C183.793 11.4883 184.945 11.7656 185.945 12.3203C186.945 12.875 187.715 13.6719 188.254 14.7109C188.801 15.7422 189.074 16.9492 189.074 18.332ZM180.473 18.332C180.473 19.4727 180.625 20.3438 180.93 20.9453C181.234 21.5391 181.746 21.8359 182.465 21.8359C183.176 21.8359 183.676 21.5391 183.965 20.9453C184.262 20.3438 184.41 19.4727 184.41 18.332C184.41 17.1992 184.262 16.3438 183.965 15.7656C183.668 15.1875 183.16 14.8984 182.441 14.8984C181.738 14.8984 181.234 15.1875 180.93 15.7656C180.625 16.3359 180.473 17.1914 180.473 18.332Z" fill="white"/>
</svg>
