<svg width="27" height="27" viewBox="0 0 27 27" fill="none" xmlns="http://www.w3.org/2000/svg">
<path fill-rule="evenodd" clip-rule="evenodd" d="M6.71986 23.625H4.47986C3.86162 23.625 3.35986 23.121 3.35986 22.5V15.75C3.35986 15.129 3.86162 14.625 4.47986 14.625H6.71986C7.3381 14.625 7.83986 15.129 7.83986 15.75V22.5C7.83986 23.121 7.3381 23.625 6.71986 23.625Z" stroke="white" stroke-width="1.6875" stroke-linecap="round" stroke-linejoin="round"/>
<path d="M14.5601 19.125H17.173C17.658 19.125 18.1295 18.9675 18.517 18.675L21.223 16.6365C21.8983 16.128 22.8436 16.1955 23.4406 16.7951V16.7951C24.1036 17.4611 24.1036 18.54 23.4406 19.2048L21.1188 21.537C20.4938 22.1647 19.6964 22.5933 18.8295 22.7677L15.5479 23.427C14.8972 23.5575 14.2263 23.5417 13.5823 23.3797L10.6143 22.635C10.2593 22.545 9.89529 22.5 9.52905 22.5H7.84009" stroke="white" stroke-width="1.6875" stroke-linecap="round" stroke-linejoin="round"/>
<path d="M14.5601 19.125H16.2233C17.1607 19.125 17.9201 18.3622 17.9201 17.4206V17.0797C17.9201 16.2979 17.3903 15.6161 16.6354 15.4271L14.0684 14.7825C13.6506 14.6779 13.2228 14.625 12.7927 14.625V14.625C11.7545 14.625 10.7386 14.9332 9.87513 15.5126L7.84009 16.875" stroke="white" stroke-width="1.6875" stroke-linecap="round" stroke-linejoin="round"/>
<path d="M19.2291 5.79988C20.4704 7.04673 20.4704 9.06827 19.2291 10.3151C17.9878 11.562 15.9753 11.562 14.734 10.3151C13.4927 9.06827 13.4927 7.04673 14.734 5.79988C15.9753 4.55303 17.9878 4.55303 19.2291 5.79988" stroke="white" stroke-width="1.6875" stroke-linecap="round" stroke-linejoin="round"/>
<path d="M16.3866 4.92187C16.2824 4.28625 15.9934 3.67537 15.5051 3.18487C14.2642 1.93838 12.2515 1.93838 11.0106 3.18487C9.76959 4.43137 9.76959 6.453 11.0106 7.6995C11.7834 8.47575 12.8541 8.76712 13.852 8.577" stroke="white" stroke-width="1.6875" stroke-linecap="round" stroke-linejoin="round"/>
</svg>
