<svg width="24" height="24" viewBox="0 0 24 24" fill="none" xmlns="http://www.w3.org/2000/svg">
<path fill-rule="evenodd" clip-rule="evenodd" d="M21 7V17C21 19.209 19.209 21 17 21H7C4.791 21 3 19.209 3 17V7C3 4.791 4.791 3 7 3H17C19.209 3 21 4.791 21 7Z" stroke="#29BB38" stroke-width="1.5" stroke-linecap="round" stroke-linejoin="round"/>
<path d="M10.333 16.167V12.834C10.333 12.373 9.96 12 9.5 12H7.833C7.373 12 7 12.373 7 12.833V16.06" stroke="#29BB38" stroke-width="1.5" stroke-linecap="round" stroke-linejoin="round"/>
<path d="M13.667 16.167V8.66698C13.667 8.20698 13.294 7.83398 12.834 7.83398H11.167C10.707 7.83398 10.334 8.20698 10.334 8.66698V16.167" stroke="#29BB38" stroke-width="1.5" stroke-linecap="round" stroke-linejoin="round"/>
<path d="M17 16.061V10.75C17 10.29 16.627 9.91699 16.167 9.91699H14.5C14.04 9.91699 13.667 10.29 13.667 10.75V16.167" stroke="#29BB38" stroke-width="1.5" stroke-linecap="round" stroke-linejoin="round"/>
<path d="M17 16.1699H7" stroke="#29BB38" stroke-width="1.5" stroke-linecap="round" stroke-linejoin="round"/>
</svg>
