<svg width="27" height="27" viewBox="0 0 27 27" fill="none" xmlns="http://www.w3.org/2000/svg">
<path fill-rule="evenodd" clip-rule="evenodd" d="M23.5199 7.875V19.125C23.5199 21.6101 21.5139 23.625 19.0399 23.625H7.83986C5.36578 23.625 3.35986 21.6101 3.35986 19.125V7.875C3.35986 5.38987 5.36578 3.375 7.83986 3.375H19.0399C21.5139 3.375 23.5199 5.38987 23.5199 7.875Z" stroke="white" stroke-width="1.6875" stroke-linecap="round" stroke-linejoin="round"/>
<path d="M11.573 18.1879V14.4382C11.573 13.9196 11.1553 13.5 10.6401 13.5H8.77305C8.25785 13.5 7.84009 13.9196 7.84009 14.4371V18.0675" stroke="white" stroke-width="1.6875" stroke-linecap="round" stroke-linejoin="round"/>
<path d="M15.3069 18.1876V9.75011C15.3069 9.23261 14.8892 8.81299 14.374 8.81299H12.5069C11.9917 8.81299 11.574 9.23261 11.574 9.75011V18.1876" stroke="white" stroke-width="1.6875" stroke-linecap="round" stroke-linejoin="round"/>
<path d="M19.0398 18.0687V12.0939C19.0398 11.5764 18.6221 11.1567 18.1069 11.1567H16.2398C15.7246 11.1567 15.3069 11.5764 15.3069 12.0939V18.188" stroke="white" stroke-width="1.6875" stroke-linecap="round" stroke-linejoin="round"/>
<path d="M19.0401 18.1909H7.84009" stroke="white" stroke-width="1.6875" stroke-linecap="round" stroke-linejoin="round"/>
</svg>
